<svg width="33" height="32" viewBox="0 0 33 32" fill="none" xmlns="http://www.w3.org/2000/svg">
<path d="M16 29C23.1797 29 29 23.1797 29 16C29 8.8203 23.1797 3 16 3C8.8203 3 3 8.8203 3 16C3 23.1797 8.8203 29 16 29Z" fill="#26A17B"/>
<path d="M17.3857 17.1998V17.1977C17.2958 17.204 16.8318 17.2312 15.7994 17.2312C14.9738 17.2312 14.3949 17.2082 14.19 17.1977V17.1998C11.0153 17.0598 8.64728 16.508 8.64728 15.8455C8.64728 15.185 11.0174 14.6312 14.19 14.4911V16.6501C14.397 16.6648 14.9926 16.7003 15.814 16.7003C16.8005 16.7003 17.2937 16.6585 17.3857 16.6501V14.4932C20.5542 14.6354 22.9159 15.1871 22.9159 15.8476C22.9159 16.508 20.5521 17.0598 17.3857 17.2019M17.3857 14.2696V12.3384H21.8061V9.39355H9.77172V12.3384H14.1921V14.2696C10.5994 14.4347 7.89905 15.1453 7.89905 15.9981C7.89905 16.8508 10.6015 17.5614 14.1921 17.7286V23.9193H17.3878V17.7286C20.9743 17.5635 23.6704 16.8529 23.6704 16.0001C23.6704 15.1495 20.9743 14.4368 17.3878 14.2717" fill="white"/>
</svg>
