<svg width="60" height="60" viewBox="0 0 60 60" fill="none" xmlns="http://www.w3.org/2000/svg">
<path fill-rule="evenodd" clip-rule="evenodd" d="M59.2941 29.6471C59.2941 46.0207 46.0207 59.2941 29.6471 59.2941C13.2734 59.2941 0 46.0207 0 29.6471C0 13.2734 13.2734 0 29.6471 0C46.0207 0 59.2941 13.2734 59.2941 29.6471ZM36.5935 32.7822C36.5935 32.7822 37.9633 33.6423 38.7351 34.7896C39.5058 35.9367 39.8071 37.56 39.0823 39.4951C38.358 41.4302 37.27 43.2126 35.0082 43.7579C32.804 44.2888 30.8163 43.8088 29.8797 43.5825L29.8078 43.5652C29.3621 43.458 28.6103 43.2389 27.81 42.9866L26.1411 47.7644L23.1053 46.6166L24.7472 41.9164L22.4349 41.0422L20.7931 45.7424L17.7575 44.5947L19.3994 39.8945L13.4272 37.6365L15.2852 34.3402L17.1008 35.0266C17.711 35.2573 17.9853 35.2993 18.3221 35.1619C18.6593 35.0247 18.8408 34.6891 18.9416 34.4006L23.1924 22.2311C23.4587 21.4688 23.4669 21.2383 23.2419 20.7101C23.0172 20.1812 22.184 19.8078 21.7055 19.6269L19.9501 18.9632L21.0169 15.9091L26.9891 18.1671L28.6356 13.4535L31.671 14.6012L30.0245 19.3147L32.3368 20.189L33.9833 15.4754L37.019 16.6232L35.3528 21.3931C37.5682 22.3846 39.1074 23.4396 40.2101 25.0481C41.636 27.1273 40.711 29.4532 40.4716 30.0008C40.2321 30.5481 39.5975 31.5375 38.8419 32.0452C38.087 32.5529 36.5935 32.7822 36.5935 32.7822ZM30.7348 22.9555C29.7567 22.5687 28.7273 22.2815 28.7273 22.2815L26.553 28.5109C26.553 28.5109 28.005 29.1117 29.1653 29.4993C30.3261 29.8878 31.6383 30.0769 32.6924 29.9124C33.7463 29.7475 34.5194 29.1524 34.9009 27.9648C35.2816 26.7768 34.8666 25.4927 33.7176 24.5966C32.568 23.7004 31.7131 23.3426 30.7348 22.9555ZM29.8935 39.478C29.104 39.5967 27.668 39.4242 26.354 39.035C25.0395 38.646 23.139 37.8806 23.139 37.8806L25.3261 31.6157C25.3261 31.6157 27.1933 32.2142 28.5896 32.8503C29.9853 33.487 31.0569 34.3092 31.5005 34.7866C31.9447 35.2634 32.6793 36.221 32.1789 37.6544C31.6787 39.0872 30.6824 39.3593 29.8935 39.478Z" fill="#F2994A"/>
</svg>
