<svg data-v-53242f23="" viewBox="0 0 1088 1024" xmlns="http://www.w3.org/2000/svg" width="32" class="icon"><path data-v-53242f23="" d="m985.92 14.656-400 295.936 74.368-174.4 325.632-121.6z" fill="#E17726"></path><path data-v-53242f23="" d="m63.424 14.656 396.48 298.752-70.848-177.28L63.424 14.72zm778.432 686.336-106.432 162.56 227.904 62.784 65.28-221.76-186.752-3.584zm-820.864 3.456 64.832 221.76 227.52-62.72-106.048-162.56-186.304 3.52z" fill="#E27625"></path><path data-v-53242f23="" d="m301.248 426.24-63.36 95.488 225.536 10.24-7.488-242.688-154.688 136.96zm446.912 0L591.04 286.464l-5.12 245.44 225.536-10.24-63.36-95.552zM313.408 863.488l136.448-65.92-117.504-91.52-18.944 157.44zm286.08-65.92 136.064 65.92-18.56-157.44-117.504 91.52z" fill="#E27625"></path><path data-v-53242f23="" d="m735.552 863.552-136.064-65.92 11.072 88.384-1.216 37.504 126.208-59.968zm-422.144 0L440 923.52l-.768-37.504 10.624-88.384-136.448 65.92z" fill="#D5BFB2"></path><path data-v-53242f23="" d="M442.368 647.616 329.216 614.4l79.936-36.736 33.28 69.888zm164.608 0 33.28-69.888 80.256 36.736-113.536 33.152z" fill="#233447"></path><path data-v-53242f23="" d="m313.472 863.616 19.776-162.56-125.824 3.52 106.048 159.04zM716.16 700.864l19.392 162.56 106.432-158.976-125.824-3.584zm95.296-179.136-225.536 10.24 20.992 115.712 33.216-69.888 80.32 36.672 91.008-92.736zm-482.112 92.736 79.872-36.672 33.28 69.824 20.928-115.584-225.472-10.24 91.392 92.608z" fill="#CC6228"></path><path data-v-53242f23="" d="m237.952 521.728 94.528 184.32-3.2-91.52-91.328-92.8zm482.56 92.736-3.52 91.584 94.528-184.32-91.008 92.8zM463.36 532.032l-20.992 115.584 26.496 136.576 5.952-179.968-11.52-72.256zm122.624 0-11.072 71.808 5.568 180.352 26.496-136.576-20.992-115.584z" fill="#E27525"></path><path data-v-53242f23="" d="M606.976 647.68 580.48 784.192l19.008 13.44 117.504-91.52 3.52-91.584-113.536 33.152zm-277.76-33.152 3.2 91.52 117.504 91.52 18.944-13.376-26.496-136.512-113.152-33.152z" fill="#F5841F"></path><path data-v-53242f23="" d="m609.344 923.52 1.152-37.504-10.24-8.704H449.088l-9.856 8.704.768 37.504-126.592-60.032 44.288 36.288 89.792 62.016h153.92l90.24-62.016 43.904-36.288-126.208 60.032z" fill="#C0AC9D"></path><path data-v-53242f23="" d="m599.488 797.632-19.008-13.44H468.864l-18.944 13.44-10.688 88.448 9.856-8.704H600.32l10.24 8.704-11.008-88.448z" fill="#161616"></path><path data-v-53242f23="" d="m1003.072 329.984 33.6-163.392-50.624-151.936-386.56 286.08L748.16 426.24l210.112 61.184 46.272-54.08-20.16-14.592 32-29.184-24.512-18.944 32.064-24.512-20.928-16.128zm-990.4-163.392L46.72 329.984l-21.76 16.128 32.448 24.512-24.576 18.944 32.064 29.184-20.16 14.592 46.272 54.08L301.12 426.24l148.8-125.44L63.36 14.592l-50.752 152z" fill="#763E1A"></path><path data-v-53242f23="" d="M958.336 487.424 748.16 426.24l63.36 95.488-94.592 184.32 124.992-1.536h186.752l-70.4-217.088zM301.12 426.24 91.008 487.424 20.992 704.512h186.304l125.056 1.536-94.528-184.32 63.296-95.488zm284.864 105.728 13.44-231.296 60.992-164.544H388.992l60.928 164.544 13.44 231.296 5.12 72.64.384 179.52H580.48l.384-179.52 5.12-72.64z" fill="#F5841F"></path></svg>