<?xml version="1.0" standalone="no"?><!DOCTYPE svg PUBLIC "-//W3C//DTD SVG 1.1//EN" "http://www.w3.org/Graphics/SVG/1.1/DTD/svg11.dtd"><svg class="icon" width="48px" height="48.00px" viewBox="0 0 1024 1024" version="1.1" xmlns="http://www.w3.org/2000/svg"><path  d="M1019.533312 1007.376384a28.08832 28.08832 0 0 0 3.745792-11.76576 31.36512 31.36512 0 0 0 0.720896-3.610624c0-0.968704-0.466944-1.767424-0.546816-2.70336s0.233472-1.779712 0.079872-2.701312c-19.001344-110.626816-71.440384-176.658432-140.220416-176.658432l-12.00128 0.063488c-56.686592-0.09216-98.215936 0.5632-141.154304-60.416a31.983616 31.983616 0 0 0-52.314112 36.810752c62.189568 88.313856 135.186432 88.250368 193.8432 87.56224l11.626496-0.03072c30.654464 0 54.437888 39.2192 68.296704 86.063104H384a32 32 0 0 0 0 64h608.032768a31.934464 31.934464 0 0 0 5.371904-0.466944 31.074304 31.074304 0 0 0 3.360768-1.30048 27.611136 27.611136 0 0 0 10.94656-5.627904 30.603264 30.603264 0 0 0 4.470784-4.263936 32.329728 32.329728 0 0 0 3.350528-4.954112zM293.6832 749.78304c-42.094592 60.839936-87.062528 60.6208-142.999552 60.184576l-11.814912-0.03072c-67.9936 0-119.74656 66.062336-138.4448 176.7424a26.23488 26.23488 0 0 0 0.106496 2.709504c-0.075776 0.909312-0.530432 1.6896-0.530432 2.6112a30.5152 30.5152 0 0 0 0.720896 3.59424 31.778816 31.778816 0 0 0 1.28 6.32832 29.960192 29.960192 0 0 0 2.482176 5.470208 28.284928 28.284928 0 0 0 7.7824 9.201664 29.9008 29.9008 0 0 0 4.984832 3.342336 30.435328 30.435328 0 0 0 5.951488 2.281472 29.696 29.696 0 0 0 3.4816 1.343488 34.03776 34.03776 0 0 0 5.296128 0.438272H192a32 32 0 0 0 0-64H72.218624c13.533184-46.843904 36.75136-86.063104 66.656256-86.063104l11.440128 0.03072c59.904 0.688128 134.656 0.8192 195.9936-87.750656a32.004096 32.004096 0 0 0-52.625408-36.43392z m-69.6832-173.78304h64a31.358976 31.358976 0 0 0 14.249984-3.719168C346.9312 689.594368 433.82784 768 512 768a138.135552 138.135552 0 0 0 42.156032-6.844416A32.014336 32.014336 0 0 0 534.528 700.2112a73.801728 73.801728 0 0 1-22.528 3.782656c-70.873088 0-176.001024-124.780544-176.001024-297.1648 0-142.563328 59.219968-214.8352 176.001024-214.8352 60.0064 0 105.312256 19.437568 134.623232 57.782272a31.98976 31.98976 0 1 0 50.812928-38.877184C655.9744 156.655616 591.843328 128 512 128c-125.50144 0-206.813184 68.921344-231.749632 192H256c0-174.655488 81.344512-256 256-256s256 81.344512 256 256h-32a30.98624 30.98624 0 0 0-8.6016 1.734656 30.011392 30.011392 0 0 0-14.487552-1.701888 31.993856 31.993856 0 0 0-27.8528 35.653632 425.293824 425.293824 0 0 1 2.93888 51.15904 404.62336 404.62336 0 0 1-20.2752 127.123456 31.9488 31.9488 0 0 0 20.34688 40.404992 31.266816 31.266816 0 0 0 10.0352 1.626112 29.677568 29.677568 0 0 0 3.842048-0.6144 27.930624 27.930624 0 0 0 3.002368 0.6144H768a32.02048 32.02048 0 0 1-32 32h-128V576a32 32 0 0 0-64 0v64a31.983616 31.983616 0 0 0 32 32h160a96.106496 96.106496 0 0 0 96-96v-5.892096a95.858688 95.858688 0 0 0 64-90.112v-64a95.813632 95.813632 0 0 0-65.1264-90.454016 29.925376 29.925376 0 0 0 1.1264-5.545984C832 110.655488 721.344512 0 512 0S192 110.655488 192 320a29.696 29.696 0 0 0 1.1264 5.545984 95.813632 95.813632 0 0 0-65.1264 90.454016v64a96.104448 96.104448 0 0 0 96 96z m608-96A32.02048 32.02048 0 0 1 800 512H739.98336a470.493184 470.493184 0 0 0 12.017664-105.15456c0-7.7824-0.329728-15.312896-0.657408-22.84544h48.656384a32.02048 32.02048 0 0 1 32 32v64z m-640-64a32.02048 32.02048 0 0 1 32-32h48.719872c-0.346112 7.532544-0.720896 15.013888-0.720896 22.84544A472.127488 472.127488 0 0 0 283.908096 512h-59.908096a32.02048 32.02048 0 0 1-32-32v-64z" /></svg>