<svg id="ecoboost-iconfontemptypag_chat_02" viewBox="0 0 1024 1024"><path d="M493.268293 187.317073c200.010927 0 362.146341 162.135415 362.146341 362.146342s-162.135415 362.146341-362.146341 362.146341-362.146341-162.135415-362.146342-362.146341 162.135415-362.146341 362.146342-362.146342z" fill="#1880FF" opacity=".3"></path><path d="M525.661659 596.430049c-2.903415-3.821268-2.903415-8.59161-2.903415-14.323512 0-1.910634 0.967805-4.776585 1.93561-6.680976l0.967805-1.910634c0.967805-1.910634 4.839024-11.457561 7.742439-17.189464 0-0.955317 1.93561-3.821268 3.871219-5.725658 2.897171-1.910634 5.806829-4.776585 10.63961-10.502244 7.742439-11.463805 3.87122-21.959805-2.903415-26.73639v-1.910634c3.87122-10.502244 5.806829-22.915122 4.839025-38.193952-0.967805-16.234146-16.446439-41.053659-56.120196-41.053658-39.667512 0-55.146146 23.870439-56.113951 41.053658-0.967805 15.278829 0.967805 27.691707 4.839025 37.238635v1.910634c-6.774634 5.731902-9.678049 16.234146-2.903415 27.691707a35.921171 35.921171 0 0 0 10.63961 10.502244c1.93561 1.90439 3.87122 4.770341 3.871219 5.725658 2.903415 5.731902 6.774634 14.323512 7.742439 17.189464l0.967805 1.910634c0.961561 2.859707 1.93561 4.770341 1.93561 6.680976 0 4.776585 0 10.502244-2.903415 14.323512-2.903415 3.815024-19.356098 21.959805-52.248975 29.596097-29.027902 6.680976-47.409951 11.457561-47.409952 41.059903 0 1.910634 46.442146 39.848585 131.10322 39.848585 84.661073 0 131.10322-36.982634 131.103219-39.848585 0.967805-29.596098-16.452683-34.372683-46.442146-41.059903-32.899122-7.636293-49.345561-25.781073-52.248975-29.596097z" fill="#FFFFFF"></path><path d="M936.585366 112.390244v274.731707h-247.552L624.390244 437.073171v-49.95122H549.463415V112.390244h387.121951z" fill="#1880FF" opacity=".2"></path><path d="M743.02439 256m-24.97561 0a24.97561 24.97561 0 1 0 49.95122 0 24.97561 24.97561 0 1 0-49.95122 0Z" fill="#FFFFFF"></path><path d="M830.439024 256m-24.975609 0a24.97561 24.97561 0 1 0 49.951219 0 24.97561 24.97561 0 1 0-49.951219 0Z" fill="#FFFFFF"></path><path d="M655.609756 256m-24.97561 0a24.97561 24.97561 0 1 0 49.95122 0 24.97561 24.97561 0 1 0-49.95122 0Z" fill="#FFFFFF"></path></svg>