<svg id="ecoboost-iconfontemptypag_chat_06" viewBox="0 0 1024 1024"><path d="M202.418605 178.604651h714.418604v500.093023H202.418605z" fill="#1880FF" opacity=".1"></path><path d="M821.581395 273.860465v500.093023H310.283907L202.418605 857.302326v-83.348838H107.162791V273.860465h714.418604z" fill="#1880FF" opacity=".2"></path><path d="M470.325581 494.139535a29.767442 29.767442 0 0 0-1.952744 59.475349l1.952744 0.059535H595.348837v-27.302698a5.953488 5.953488 0 0 1 10.168558-4.203163l45.151256 45.151256a5.953488 5.953488 0 0 1 0 8.430139l-45.151256 45.151256a5.953488 5.953488 0 0 1-10.168558-4.203162v-27.314605l-125.023256 0.011907a65.488372 65.488372 0 0 1-2.631441-130.929116l2.631441-0.047628H571.534884a29.767442 29.767442 0 0 0 1.952744-59.475349L571.534884 398.883721H428.651163v27.302698a5.953488 5.953488 0 0 1-10.168558 4.203162l-45.151256-45.151255a5.953488 5.953488 0 0 1 0-8.43014l45.151256-45.151256a5.953488 5.953488 0 0 1 10.168558 4.203163V363.162791l142.883721 0.011907a65.488372 65.488372 0 0 1 2.631442 130.929116L571.534884 494.139535h-101.209303z" fill="#FFFFFF"></path></svg>