<svg class="icon" style="width: 1em;height: 1em;vertical-align: middle;fill: currentColor;overflow: hidden;" viewBox="0 0 1024 1024" version="1.1" xmlns="http://www.w3.org/2000/svg" p-id="6128"><path d="M378.857631 467.61921l-88.76158 0 0 88.76158 88.76158 0L378.857631 467.61921zM556.38079 467.61921l-88.76158 0 0 88.76158 88.76158 0L556.38079 467.61921zM733.903949 467.61921l-88.76158 0 0 88.76158 88.76158 0L733.903949 467.61921zM822.665529 156.952658l-44.38079 0 0-88.76158-88.76158 0 0 88.76158L334.475817 156.952658l0-88.76158-88.76158 0 0 88.76158-44.38079 0c-49.262984 0-88.317465 39.942711-88.317465 88.76158l-0.444115 621.332081c0 48.818869 39.498596 88.76158 88.76158 88.76158l621.332081 0c48.818869 0 88.76158-39.942711 88.76158-88.76158L911.427108 245.714238C911.427108 196.895369 871.484398 156.952658 822.665529 156.952658zM822.665529 867.046319 201.333448 867.046319 201.333448 378.857631l621.332081 0L822.665529 867.046319z" p-id="6129"></path></svg>