<?xml version="1.0" standalone="no"?><!DOCTYPE svg PUBLIC "-//W3C//DTD SVG 1.1//EN" "http://www.w3.org/Graphics/SVG/1.1/DTD/svg11.dtd"><svg class="icon" width="48px" height="48.00px" viewBox="0 0 1024 1024" version="1.1" xmlns="http://www.w3.org/2000/svg"><path  d="M824.279 458.752l129.124 223.953-129.124 223.953H566.03L436.907 682.705 566.03 458.752h258.248z m-235.82-344.064c34.34 0 62.242 27.56 62.797 61.767l0.008 1.038v105.77l87.381 0.001c34.34 0 62.243 27.56 62.797 61.767l0.009 1.038v78.55h-60.075v-78.55c0-1.4-1.054-2.554-2.412-2.712l-0.319-0.018H591.19V177.493c0-1.4-1.054-2.554-2.412-2.712l-0.318-0.018H203.435a2.731 2.731 0 0 0-2.713 2.412l-0.018 0.318v666.283h238.933v60.075H70.997v-60.075h69.632V177.493c0-34.34 27.56-62.242 61.767-62.797l1.039-0.008h385.024z m201.183 404.139H600.668L506.18 682.705l94.487 163.879h188.974l94.487-163.879-94.487-163.878zM696.179 578.9c57.23 0 103.625 46.458 103.625 103.766 0 57.308-46.394 103.765-103.625 103.765-57.23 0-103.624-46.457-103.624-103.765S638.949 578.9 696.179 578.9z m0 60.075c-24.097 0-43.631 19.561-43.631 43.69 0 24.13 19.534 43.691 43.631 43.691s43.632-19.56 43.632-43.69-19.535-43.691-43.632-43.691zM453.291 442.368v60.075H273.067v-60.075H453.29z m65.536-136.533v60.074h-245.76v-60.074h245.76z"  /></svg>