<svg class="icon" viewBox="0 0 1365 1024" version="1.1" xmlns="http://www.w3.org/2000/svg" width="200" height="200"><path d="M1365.204289 88.738215l-3.705552 2.14532-138.275592 92.443767q-559.830873 377.77126-560.708504 377.186173L97.515498 175.52614l-97.514523-66.017331V85.617751A85.325207 85.325207 0 0 1 85.326182 0h1194.5529A85.325207 85.325207 0 0 1 1365.204289 85.325207z m0 102.390249v747.546329a85.325207 85.325207 0 0 1-85.325207 85.325207H85.326182A85.325207 85.325207 0 0 1 0.000975 938.577278V212.191601l49.537378 33.544996L614.342467 630.91896a87.76307 87.76307 0 0 0 98.684696 0l557.880583-377.381202 94.199029-62.896867z"></path></svg>