<?xml version="1.0" standalone="no"?><!DOCTYPE svg PUBLIC "-//W3C//DTD SVG 1.1//EN" "http://www.w3.org/Graphics/SVG/1.1/DTD/svg11.dtd"><svg class="icon" width="48px" height="48.00px" viewBox="0 0 1024 1024" version="1.1" xmlns="http://www.w3.org/2000/svg"><path  d="M509.866667 418.133333c-4.266667 0-8.533333-2.133333-12.8-4.266666-21.333333-14.933333-42.666667-29.866667-66.133334-42.666667-8.533333-4.266667-12.8-14.933333-10.666666-23.466667 23.466667-91.733333 61.866667-153.6 74.666666-168.533333 4.266667-6.4 10.666667-8.533333 17.066667-8.533333 6.4 0 12.8 4.266667 17.066667 8.533333 10.666667 14.933333 46.933333 74.666667 70.4 166.4 2.133333 8.533333-2.133333 19.2-10.666667 23.466667-23.466667 12.8-44.8 27.733333-66.133333 42.666666-4.266667 4.266667-8.533333 6.4-12.8 6.4z m-42.666667-76.8c14.933333 8.533333 29.866667 19.2 42.666667 27.733334 14.933333-10.666667 27.733333-19.2 44.8-29.866667-12.8-46.933333-29.866667-85.333333-42.666667-108.8-14.933333 25.6-32 64-44.8 110.933333zM512 853.333333c-8.533333 0-14.933333-4.266667-19.2-10.666666-27.733333-53.333333-51.2-108.8-66.133333-162.133334-2.133333-8.533333 2.133333-19.2 8.533333-23.466666 21.333333-12.8 42.666667-27.733333 61.866667-42.666667 8.533333-6.4 19.2-6.4 25.6 0 19.2 14.933333 40.533333 29.866667 61.866666 42.666667 8.533333 4.266667 12.8 14.933333 10.666667 23.466666-14.933333 55.466667-36.266667 108.8-64 162.133334-4.266667 6.4-10.666667 10.666667-19.2 10.666666z m-40.533333-170.666666c10.666667 34.133333 23.466667 68.266667 38.4 100.266666 14.933333-34.133333 27.733333-68.266667 38.4-100.266666l-38.4-25.6c-10.666667 8.533333-23.466667 17.066667-38.4 25.6zM832 533.333333c-14.933333 0-23.466667-8.533333-23.466667-21.333333s8.533333-21.333333 21.333334-21.333333 21.333333 8.533333 21.333333 21.333333c2.133333 12.8-6.4 21.333333-19.2 21.333333z"  /><path  d="M832 531.2c-2.133333 0 0 0 0 0-2.133333 0 0 0 0 0-21.333333-2.133333-17.066667-8.533333-19.2-17.066667-2.133333-8.533333 0-19.2 8.533333-23.466666 4.266667-2.133333 8.533333-2.133333 12.8-2.133334 10.666667 0 19.2 10.666667 19.2 21.333334 0 12.8-8.533333 21.333333-21.333333 21.333333z"  /><path  d="M672 597.333333c-6.4 0-14.933333-4.266667-19.2-10.666666-12.8-21.333333-27.733333-42.666667-44.8-64-6.4-8.533333-6.4-17.066667 0-25.6 14.933333-19.2 27.733333-40.533333 40.533333-61.866667 4.266667-8.533333 14.933333-12.8 23.466667-10.666667 55.466667 14.933333 110.933333 38.4 166.4 66.133334 6.4 4.266667 10.666667 10.666667 10.666667 19.2s-4.266667 14.933333-10.666667 19.2c-53.333333 27.733333-106.666667 51.2-160 66.133333-2.133333 2.133333-4.266667 2.133333-6.4 2.133333z m-19.2-89.6c10.666667 12.8 19.2 27.733333 27.733333 40.533334 34.133333-10.666667 66.133333-23.466667 100.266667-38.4-34.133333-17.066667-68.266667-29.866667-104.533333-40.533334-6.4 14.933333-14.933333 27.733333-23.466667 38.4zM347.733333 601.6H341.333333c-89.6-23.466667-149.333333-61.866667-164.266666-74.666667-4.266667-4.266667-8.533333-10.666667-8.533334-17.066666 0-6.4 4.266667-12.8 10.666667-17.066667 61.866667-38.4 123.733333-59.733333 164.266667-70.4 8.533333-2.133333 19.2 2.133333 23.466666 10.666667 12.8 23.466667 27.733333 44.8 42.666667 64 6.4 8.533333 6.4 19.2 0 25.6-17.066667 21.333333-32 44.8-44.8 68.266666-2.133333 6.4-10.666667 10.666667-17.066667 10.666667zM232.533333 512c23.466667 12.8 59.733333 29.866667 104.533334 42.666667 8.533333-14.933333 19.2-29.866667 29.866666-44.8-8.533333-12.8-19.2-27.733333-27.733333-42.666667-27.733333 10.666667-66.133333 23.466667-106.666667 44.8zM736 302.933333c-4.266667 0-6.4 0-10.666667-2.133333-8.533333-4.266667-12.8-14.933333-10.666666-23.466667 2.133333-4.266667 4.266667-8.533333 8.533333-12.8 8.533333-6.4 21.333333-6.4 27.733333 2.133334 8.533333 8.533333 8.533333 21.333333 0 29.866666l-2.133333 2.133334H746.666667c-2.133333 4.266667-6.4 4.266667-10.666667 4.266666z"  /><path  d="M283.733333 759.466667c-6.4 0-12.8-2.133333-17.066666-6.4-4.266667-4.266667-6.4-12.8-4.266667-19.2 14.933333-68.266667 44.8-125.866667 66.133333-164.266667 4.266667-8.533333 14.933333-12.8 23.466667-10.666667 25.6 6.4 53.333333 12.8 81.066667 14.933334 8.533333 2.133333 17.066667 8.533333 19.2 17.066666 4.266667 25.6 8.533333 51.2 17.066666 74.666667 2.133333 8.533333-2.133333 19.2-8.533333 23.466667-85.333333 53.333333-153.6 68.266667-177.066667 70.4 2.133333 0 2.133333 0 0 0z m74.666667-153.6c-14.933333 27.733333-32 64-44.8 104.533333 25.6-6.4 64-21.333333 108.8-46.933333-4.266667-17.066667-8.533333-32-10.666667-49.066667-17.066667-2.133333-36.266667-6.4-53.333333-8.533333zM736 305.066667c-6.4 0-14.933333-4.266667-19.2-10.666667-4.266667-8.533333-4.266667-19.2 2.133333-25.6 0 0 0-2.133333 2.133334-2.133333 8.533333-8.533333 21.333333-8.533333 29.866666 0 8.533333 8.533333 8.533333 21.333333 2.133334 27.733333-2.133333 4.266667-6.4 6.4-10.666667 8.533333-2.133333 2.133333-4.266667 2.133333-6.4 2.133334z"  /><path d="M281.6 761.6c-2.133333 0-4.266667 0-6.4-2.133333-8.533333-2.133333-12.8-8.533333-14.933333-17.066667 0-6.4 2.133333-12.8 6.4-17.066667 2.133333-2.133333 6.4-4.266667 10.666666-6.4 8.533333-2.133333 19.2 2.133333 23.466667 10.666667 4.266667 8.533333 2.133333 19.2-4.266667 25.6-2.133333 2.133333-8.533333 6.4-14.933333 6.4z"  /><path  d="M281.6 761.6h-2.133333c-8.533333 0-14.933333-6.4-17.066667-14.933333-2.133333-8.533333 0-17.066667 4.266667-21.333334 6.4-6.4 17.066667-8.533333 25.6-4.266666 8.533333 4.266667 12.8 12.8 10.666666 21.333333 0 4.266667-2.133333 8.533333-6.4 10.666667-4.266667 6.4-8.533333 8.533333-14.933333 8.533333zM667.733333 467.2H661.333333c-23.466667-6.4-46.933333-10.666667-72.533333-14.933333-8.533333-2.133333-17.066667-8.533333-17.066667-19.2-2.133333-25.6-8.533333-51.2-14.933333-76.8-2.133333-8.533333 2.133333-19.2 10.666667-23.466667 49.066667-27.733333 102.4-51.2 160-68.266667 8.533333-2.133333 14.933333 0 21.333333 4.266667 6.4 6.4 8.533333 12.8 6.4 21.333333-17.066667 59.733333-40.533333 115.2-68.266667 164.266667-4.266667 8.533333-12.8 12.8-19.2 12.8z m-55.466666-55.466667c14.933333 2.133333 29.866667 6.4 44.8 8.533334 17.066667-32 32-66.133333 44.8-102.4-34.133333 12.8-68.266667 27.733333-98.133334 42.666666 2.133333 17.066667 6.4 34.133333 8.533334 51.2z"  /><path  d="M593.066667 452.266667h-2.133334c-14.933333-2.133333-29.866667-4.266667-46.933333-4.266667-4.266667 0-8.533333-2.133333-12.8-4.266667-10.666667-8.533333-23.466667-19.2-34.133333-27.733333-6.4-4.266667-8.533333-10.666667-8.533334-17.066667 0-6.4 2.133333-12.8 8.533334-17.066666 21.333333-17.066667 46.933333-32 70.4-46.933334 6.4-4.266667 12.8-4.266667 19.2-2.133333 6.4 2.133333 10.666667 8.533333 12.8 14.933333 6.4 27.733333 12.8 53.333333 14.933333 81.066667 0 6.4-2.133333 12.8-6.4 17.066667-4.266667 4.266667-8.533333 6.4-14.933333 6.4zM554.666667 405.333333c4.266667 0 8.533333 0 14.933333 2.133334-2.133333-6.4-2.133333-12.8-4.266667-21.333334l-19.2 12.8c2.133333 0 4.266667 2.133333 8.533334 6.4zM448 695.466667c-2.133333 0-6.4 0-8.533333-2.133334-6.4-2.133333-10.666667-8.533333-12.8-14.933333-6.4-25.6-12.8-53.333333-17.066667-81.066667 0-6.4 2.133333-12.8 6.4-17.066666 4.266667-4.266667 10.666667-6.4 17.066667-6.4 12.8 2.133333 27.733333 2.133333 42.666666 4.266666 4.266667 0 10.666667 2.133333 12.8 6.4 10.666667 10.666667 23.466667 19.2 34.133334 29.866667 4.266667 4.266667 8.533333 10.666667 8.533333 17.066667 0 6.4-2.133333 12.8-8.533333 17.066666-21.333333 17.066667-42.666667 32-66.133334 44.8-2.133333 0-4.266667 2.133333-8.533333 2.133334z m8.533333-76.8c2.133333 6.4 2.133333 12.8 4.266667 21.333333 4.266667-4.266667 10.666667-6.4 14.933333-10.666667-4.266667-2.133333-6.4-6.4-10.666666-8.533333-2.133333 0-6.4 0-8.533334-2.133333z"  /><path  d="M430.933333 616.533333h-2.133333c-29.866667-4.266667-57.6-8.533333-85.333333-17.066666-6.4-2.133333-10.666667-6.4-14.933334-12.8-2.133333-6.4-2.133333-12.8 2.133334-19.2 14.933333-25.6 29.866667-49.066667 49.066666-72.533334 4.266667-4.266667 10.666667-8.533333 17.066667-8.533333 6.4 0 12.8 4.266667 17.066667 8.533333 8.533333 12.8 19.2 25.6 29.866666 36.266667 2.133333 4.266667 4.266667 8.533333 4.266667 12.8 2.133333 14.933333 2.133333 29.866667 4.266667 44.8 0 6.4-2.133333 12.8-6.4 17.066667-4.266667 8.533333-8.533333 10.666667-14.933334 10.666666z m-49.066666-51.2c8.533333 2.133333 17.066667 4.266667 25.6 4.266667 0-4.266667 0-8.533333-2.133334-12.8-4.266667-4.266667-6.4-8.533333-8.533333-10.666667-6.4 6.4-10.666667 12.8-14.933333 19.2zM625.066667 533.333333c-6.4 0-12.8-4.266667-17.066667-8.533333-8.533333-10.666667-19.2-23.466667-27.733333-34.133333-4.266667-4.266667-6.4-8.533333-6.4-12.8 0-14.933333-2.133333-27.733333-4.266667-42.666667 0-6.4 2.133333-12.8 6.4-17.066667 4.266667-4.266667 10.666667-6.4 17.066667-6.4 25.6 4.266667 51.2 8.533333 76.8 14.933334 6.4 2.133333 10.666667 6.4 14.933333 12.8 2.133333 6.4 2.133333 12.8-2.133333 19.2-12.8 23.466667-27.733333 46.933333-42.666667 66.133333 0 4.266667-6.4 8.533333-14.933333 8.533333 2.133333 0 2.133333 0 0 0z m-8.533334-68.266666c2.133333 2.133333 4.266667 4.266667 6.4 8.533333 2.133333-4.266667 6.4-8.533333 8.533334-14.933333-6.4-2.133333-10.666667-2.133333-17.066667-4.266667 2.133333 4.266667 2.133333 8.533333 2.133333 10.666667zM738.133333 761.6c-6.4 0-10.666667-2.133333-14.933333-6.4-2.133333-2.133333-4.266667-6.4-6.4-10.666667-2.133333-8.533333 2.133333-19.2 10.666667-23.466666 8.533333-4.266667 19.2-2.133333 25.6 4.266666 6.4 6.4 8.533333 14.933333 6.4 23.466667-2.133333 8.533333-8.533333 12.8-17.066667 14.933333l-4.266667-2.133333zM283.733333 305.066667H277.333333c-4.266667-2.133333-8.533333-4.266667-12.8-8.533334-6.4-8.533333-6.4-21.333333 2.133334-27.733333 8.533333-8.533333 21.333333-8.533333 29.866666 0l2.133334 2.133333v2.133334c4.266667 6.4 4.266667 17.066667 0 23.466666-2.133333 4.266667-8.533333 8.533333-14.933334 8.533334z"  /><path  d="M738.133333 761.6c-6.4 0-10.666667-2.133333-14.933333-6.4-6.4-6.4-8.533333-17.066667-4.266667-25.6 4.266667-8.533333 12.8-12.8 21.333334-10.666667 4.266667 0 8.533333 2.133333 10.666666 6.4 4.266667 4.266667 6.4 10.666667 6.4 17.066667 0 8.533333-6.4 14.933333-14.933333 17.066667 0 2.133333-2.133333 2.133333-4.266667 2.133333zM352 465.066667c-8.533333 0-14.933333-4.266667-19.2-10.666667-27.733333-49.066667-51.2-102.4-68.266667-162.133333-2.133333-8.533333 0-14.933333 6.4-21.333334 6.4-6.4 12.8-8.533333 21.333334-4.266666 57.6 17.066667 110.933333 40.533333 160 68.266666 8.533333 4.266667 12.8 14.933333 10.666666 23.466667-6.4 23.466667-10.666667 49.066667-12.8 72.533333-2.133333 10.666667-8.533333 17.066667-19.2 19.2-25.6 2.133333-49.066667 8.533333-74.666666 14.933334h-4.266667zM317.866667 320c12.8 34.133333 27.733333 68.266667 42.666666 98.133333 14.933333-4.266667 32-6.4 46.933334-8.533333 2.133333-14.933333 4.266667-32 8.533333-46.933333-29.866667-17.066667-61.866667-29.866667-98.133333-42.666667z"  /><path  d="M283.733333 305.066667c-6.4 0-10.666667-2.133333-14.933333-6.4 0 0-2.133333 0-2.133333-2.133334-8.533333-8.533333-8.533333-21.333333 0-29.866666 8.533333-8.533333 21.333333-8.533333 27.733333-2.133334 4.266667 2.133333 6.4 6.4 8.533333 10.666667 2.133333 8.533333-2.133333 19.2-8.533333 23.466667-2.133333 6.4-6.4 6.4-10.666667 6.4zM736 759.466667h-4.266667c-70.4-17.066667-130.133333-46.933333-166.4-68.266667-8.533333-4.266667-12.8-14.933333-10.666666-23.466667 6.4-25.6 12.8-53.333333 14.933333-78.933333 2.133333-8.533333 8.533333-17.066667 17.066667-19.2 25.6-4.266667 51.2-8.533333 76.8-17.066667 8.533333-2.133333 19.2 2.133333 23.466666 10.666667 49.066667 83.2 64 151.466667 66.133334 172.8 0 6.4-2.133333 12.8-6.4 17.066667-2.133333 4.266667-6.4 6.4-10.666667 6.4z m-136.533333-96c27.733333 14.933333 64 32 106.666666 46.933333-6.4-25.6-21.333333-66.133333-44.8-108.8-17.066667 4.266667-34.133333 8.533333-51.2 10.666667-2.133333 17.066667-6.4 34.133333-10.666666 51.2zM426.666667 450.133333c-6.4 0-10.666667-2.133333-14.933334-6.4-4.266667-4.266667-6.4-10.666667-6.4-17.066666 2.133333-25.6 8.533333-53.333333 14.933334-78.933334 2.133333-6.4 6.4-12.8 12.8-14.933333 6.4-2.133333 12.8-2.133333 19.2 0 25.6 14.933333 49.066667 29.866667 70.4 44.8 6.4 4.266667 8.533333 10.666667 8.533333 17.066667 0 6.4-2.133333 12.8-8.533333 17.066666-10.666667 8.533333-21.333333 17.066667-32 27.733334-4.266667 2.133333-8.533333 4.266667-12.8 4.266666-14.933333 0-32 2.133333-46.933334 4.266667-2.133333 2.133333-2.133333 2.133333-4.266666 2.133333z m29.866666-64c-2.133333 6.4-2.133333 12.8-4.266666 19.2h14.933333l6.4-6.4c-6.4-6.4-10.666667-8.533333-17.066667-12.8z"  /><path  d="M573.866667 695.466667c-4.266667 0-8.533333 0-10.666667-2.133334-23.466667-12.8-44.8-29.866667-66.133333-44.8-4.266667-4.266667-8.533333-10.666667-8.533334-17.066666s2.133333-12.8 8.533334-17.066667c12.8-10.666667 23.466667-19.2 36.266666-32 4.266667-4.266667 8.533333-4.266667 12.8-6.4 12.8-2.133333 27.733333-2.133333 42.666667-4.266667 6.4 0 12.8 2.133333 19.2 6.4s6.4 10.666667 6.4 17.066667c-4.266667 27.733333-8.533333 55.466667-17.066667 83.2-2.133333 6.4-6.4 10.666667-12.8 14.933333-4.266667 0-6.4 2.133333-10.666666 2.133334z m-27.733334-66.133334c4.266667 4.266667 10.666667 6.4 14.933334 10.666667 2.133333-6.4 2.133333-14.933333 4.266666-21.333333h-8.533333c-4.266667 2.133333-8.533333 6.4-10.666667 10.666666z"  /><path  d="M590.933333 614.4c-6.4 0-10.666667-2.133333-14.933333-6.4-4.266667-4.266667-6.4-10.666667-6.4-17.066667 2.133333-14.933333 4.266667-29.866667 4.266667-42.666666 0-4.266667 2.133333-8.533333 4.266666-12.8 10.666667-10.666667 19.2-23.466667 29.866667-36.266667 4.266667-6.4 10.666667-8.533333 17.066667-8.533333 6.4 0 12.8 2.133333 17.066666 8.533333 17.066667 21.333333 32 44.8 46.933334 68.266667 4.266667 6.4 4.266667 12.8 2.133333 19.2-2.133333 6.4-8.533333 10.666667-14.933333 12.8-27.733333 8.533333-55.466667 12.8-83.2 17.066666 0-2.133333 0-2.133333-2.133334-2.133333z m25.6-57.6v10.666667c6.4-2.133333 14.933333-2.133333 21.333334-4.266667-4.266667-6.4-8.533333-10.666667-12.8-17.066667-2.133333 2.133333-4.266667 6.4-8.533334 10.666667zM394.666667 533.333333c-6.4 0-12.8-4.266667-17.066667-8.533333-17.066667-21.333333-32-44.8-44.8-70.4-4.266667-6.4-4.266667-12.8-2.133333-19.2 2.133333-6.4 8.533333-10.666667 14.933333-12.8 25.6-6.4 53.333333-12.8 78.933333-14.933333 6.4 0 12.8 2.133333 17.066667 6.4s6.4 10.666667 6.4 17.066666c-2.133333 14.933333-2.133333 29.866667-4.266667 44.8 0 4.266667-2.133333 10.666667-6.4 12.8-10.666667 10.666667-19.2 23.466667-27.733333 34.133334-2.133333 6.4-8.533333 10.666667-14.933333 10.666666z m-10.666667-76.8c4.266667 6.4 8.533333 12.8 10.666667 17.066667 2.133333-2.133333 4.266667-6.4 6.4-8.533333v-12.8c-4.266667 2.133333-10.666667 4.266667-17.066667 4.266666z"  /></svg>