<svg class="icon" style="width: 1em;height: 1em;vertical-align: middle;fill: currentColor;overflow: hidden;" viewBox="0 0 1024 1024" version="1.1" xmlns="http://www.w3.org/2000/svg" p-id="10154"><path d="M938.24 280.32h-133.12a33.28 33.28 0 1 1 0-64h133.12a33.28 33.28 0 0 1 0 64z m-266.24 0H539.52a33.28 33.28 0 1 1 0-64h132.48a33.28 33.28 0 1 1 0 64z m-265.6 0H273.28a33.28 33.28 0 0 1 0-64h133.12a33.28 33.28 0 1 1 0 64z m-266.24 0h-54.4A72.96 72.96 0 0 1 12.8 207.36V192a33.28 33.28 0 0 1 64 0v16a6.4 6.4 0 0 0 6.4 6.4h54.4a33.28 33.28 0 0 1 0 64z m837.76-94.08a33.28 33.28 0 0 1-33.28-33.28V128a6.4 6.4 0 0 0-6.4-6.4h-46.72a33.28 33.28 0 0 1 0-64h46.72A72.96 72.96 0 0 1 1011.2 128v24.32a33.28 33.28 0 0 1-33.28 33.92z m-218.88-64H625.92a33.28 33.28 0 1 1 0-64h133.12a33.28 33.28 0 1 1 0 64z m-266.24 0H359.68a33.28 33.28 0 1 1 0-64H492.8a33.28 33.28 0 0 1 0 64z m-265.6 0H94.08a33.28 33.28 0 0 1 0-64h133.12a33.28 33.28 0 1 1 0 64zM938.24 627.84H85.76A72.96 72.96 0 0 1 12.8 554.88V476.16A72.96 72.96 0 0 1 85.76 403.2h852.48a72.96 72.96 0 0 1 72.96 72.96v78.72a72.96 72.96 0 0 1-72.96 72.96zM85.76 469.76a6.4 6.4 0 0 0-6.4 6.4v78.72a6.4 6.4 0 0 0 6.4 6.4h852.48a6.4 6.4 0 0 0 6.4-6.4V476.16a6.4 6.4 0 0 0-6.4-6.4zM938.24 975.36h-133.12a33.28 33.28 0 0 1 0-64h133.12a33.28 33.28 0 1 1 0 64z m-266.24 0H539.52a33.28 33.28 0 0 1 0-64h132.48a33.28 33.28 0 1 1 0 64z m-265.6 0H273.28a33.28 33.28 0 0 1 0-64h133.12a33.28 33.28 0 0 1 0 64z m-266.24 0h-54.4A72.96 72.96 0 0 1 12.8 902.4v-16a33.28 33.28 0 0 1 64 0v16a5.76 5.76 0 0 0 6.4 6.4h54.4a33.28 33.28 0 1 1 0 64z m837.76-94.08a33.28 33.28 0 0 1-33.28-33.28v-24.32a6.4 6.4 0 0 0-6.4-6.4h-46.72a33.28 33.28 0 0 1-33.28-33.28 33.92 33.92 0 0 1 33.28-33.28h46.72a73.6 73.6 0 0 1 72.96 72.96v24.32a33.28 33.28 0 0 1-33.28 33.28z m-218.88-64H625.92a33.28 33.28 0 0 1-33.28-33.28 33.28 33.28 0 0 1 33.28-33.28h133.12a33.28 33.28 0 0 1 32.64 33.28 32.64 32.64 0 0 1-32.64 33.28z m-266.24 0H359.68a33.28 33.28 0 0 1-33.28-33.28 33.92 33.92 0 0 1 33.28-33.28H492.8a33.28 33.28 0 0 1 33.28 33.28 33.28 33.28 0 0 1-33.28 33.28z m-266.24 0H94.08a33.28 33.28 0 0 1-30.08-33.28 33.28 33.28 0 0 1 33.28-33.28h129.28a33.28 33.28 0 0 1 33.28 33.28 33.28 33.28 0 0 1-33.28 33.28z" fill="#323333" p-id="10155"></path></svg>