<svg class="icon" style="width: 1em;height: 1em;vertical-align: middle;fill: currentColor;overflow: hidden;" viewBox="0 0 1024 1024" version="1.1" xmlns="http://www.w3.org/2000/svg" p-id="3964"><path d="M632.162715 373.218118c3.662121-14.635839 7.324241-36.591104 7.324242-51.231158 0-106.115404-87.82196-197.599485-193.943987-197.599485-106.117512 0-201.257391 84.164355-201.257391 193.94188 0 58.546368 25.61317 109.777525 69.524301 150.028642 10.977632 7.319726 29.275592 7.319726 36.59321 0 7.31792-10.977632 7.31792-29.273184 0-36.591103-62.206682-54.89087-65.866395-146.370736-14.637946-204.917405 51.231157-58.550883 142.710722-65.866395 204.92192-10.977933 32.932896 29.271077 47.56422 62.204575 47.56422 106.115404 0 10.977632 0 29.275592-3.653692 40.253224-3.66182 14.635538 3.653692 29.275291 18.293746 32.933198 10.978234 0.000301 29.271378-10.977632 29.271377-21.955264z" fill="#515151" p-id="3965"></path><path d="M675.590681 910.654278h-207.430767c-33.857683 0-53.385381-19.157723-69.075755-34.550973-4.113376-4.035106-7.998565-7.846541-11.86208-11.066137l-0.526815-0.438912-8.103327-8.107842-0.870299-1.350756-93.716875-145.423973c-13.596658-18.424095-15.638896-39.644828-15.638897-50.708255 0-10.868657 2.361639-21.469089 7.019592-31.507484 4.377085-9.432708 10.571533-17.934307 18.411451-25.268783 7.698431-7.202321 16.551341-12.877178 26.312782-16.868032 10.118772-4.136556 20.673447-6.234185 31.371113-6.234185h1.854391l1.799 0.450051c1.791173 0.448245 3.768086 0.909133 5.861199 1.396814 5.524338 1.287236 11.57188 2.696694 17.568547 4.602862v-237.71965c0-10.697065 2.097328-21.251439 6.234185-31.370512 3.990252-9.76114 9.665109-18.613748 16.867129-26.312481 7.333875-7.839919 15.835173-14.034668 25.266977-18.412053 10.037793-4.658254 20.637623-7.020194 31.505075-7.020193 10.868054 0 21.467885 2.36194 31.50628 7.019892 9.432407 4.377386 17.933705 10.571834 25.268182 18.411752 7.202321 7.698732 12.877178 16.551341 16.868032 26.312481 4.136857 10.118772 6.234486 20.673447 6.234486 31.370512v64.471086c4.323801-1.025033 8.858629-1.736685 14.117452-1.736685 10.787978 0 22.309886 3.783138 33.320332 10.940303 5.501159 3.576325 10.61729 7.86641 15.089503 12.606847 2.790918-1.458225 5.732054-2.70422 8.814377-3.731661 7.183055-2.394753 15.19035-3.608837 23.798817-3.608837 14.294463 0 28.839389 4.931295 40.954943 13.885654 8.320374 6.149292 15.125025 13.943754 19.906403 22.663606 6.726983-0.897694 12.691739-0.897694 16.924928-0.897694h0.682753l0.680044 0.062014c10.60555 0.964223 20.815536 3.805415 30.346984 8.445305 9.401701 4.576974 17.703411 10.684121 24.673332 18.151655 14.785756 15.840892 21.961887 36.093188 20.252295 57.09898v203.544072c0 37.403303-12.955448 77.323579-35.544697 109.525255-10.464363 14.916707-22.593163 27.470873-35.075982 36.305118-13.932014 9.859278-28.339366 15.070838-41.66509 15.070839z m-268.554316-68.288542c4.600153 3.880373 8.933287 8.131624 13.129749 12.248311 14.186089 13.917263 26.43711 25.936485 47.9938 25.936485h207.430767c15.214433 0 35.663306-15.135863 52.095436-38.560491 19.120093-27.255932 30.085684-60.874892 30.085684-92.236975V544.880817l0.062013-0.680646c1.147254-12.609556-3.1919-24.879542-12.217605-34.549467-8.874283-9.507967-21.635863-15.716564-35.097657-17.095918-5.733861 0.003913-13.340776 0.100547-20.444056 2.468808l-14.915804 4.972537-4.318081-15.118101c-4.480341-15.686761-20.902536-27.974809-37.386445-27.974809-11.069449 0-19.248937 2.798745-25.006279 8.556387l-13.631879 13.63188-9.918281-16.531472c-7.110505-11.851544-21.978143-21.863749-32.466289-21.863749-4.485157 0-8.178586 1.095475-14.296871 2.910129-3.204845 0.950375-6.836862 2.027788-11.222074 3.123866l-18.702254 4.675111v-103.547253c0-28.239722-23.258455-53.011192-49.773233-53.011192-26.51267 0-49.76962 24.77147-49.76962 53.011192v298.86939l-25.694752-25.693547c-5.251297-5.250996-18.867523-8.423931-28.809586-10.741017-1.513014-0.352816-2.96853-0.691784-4.385212-1.033161-27.52536 0.910036-51.308223 23.765101-51.308223 49.746742 0 5.962649 0.969943 21.122896 9.953201 33.09636l0.321809 0.428978 93.410721 144.948936 4.881021 4.884935z" fill="#515151" p-id="3966"></path></svg>