<svg class="icon" style="width: 1em;height: 1em;vertical-align: middle;fill: currentColor;overflow: hidden;" viewBox="0 0 1024 1024" version="1.1" xmlns="http://www.w3.org/2000/svg" p-id="1593"><path d="M960 192 960 128c0-35.392-28.608-64-64-64l-64 0c-35.392 0-64 28.608-64 64L256 128c0-35.392-28.608-64-64-64L128 64C92.608 64 64 92.608 64 128l0 64c0 35.392 28.608 64 64 64l0 512c-35.392 0-64 28.608-64 64l0 64c0 35.328 28.608 64 64 64l64 0c35.392 0 64-28.672 64-64l512 0c0 35.328 28.608 64 64 64l64 0c35.392 0 64-28.672 64-64l0-64c0-35.392-28.608-64-64-64L896 256C931.392 256 960 227.392 960 192zM832 768c-35.392 0-64 28.608-64 64L256 832c0-35.392-28.608-64-64-64L192 256c35.392 0 64-28.608 64-64l512 0c0 35.392 28.608 64 64 64L832 768zM736 320l-448 0C270.336 320 256 334.336 256 352l0 64C256 433.664 270.336 448 288 448S320 433.664 320 416L320 384l128 0 0 256L416 640C398.336 640 384 654.336 384 672S398.336 704 416 704l192 0c17.664 0 32-14.336 32-32S625.664 640 608 640L576 640 576 384l128 0 0 32C704 433.664 718.336 448 736 448S768 433.664 768 416l0-64C768 334.336 753.664 320 736 320z" p-id="1594"></path></svg>